<svg width="967" height="1024" viewBox="0 0 967 1024" fill="none" xmlns="http://www.w3.org/2000/svg">
<path opacity="0.5" d="M299.052 39.4511C186.578 131.575 169.148 305.775 92.9728 434.288C66.4555 479.006 32.1917 519.028 14.3149 568.636C-26.7272 682.187 29.7585 810.991 105.362 901.178C141.414 944.201 183.524 983.617 234.472 1001.75C273.652 1015.7 315.663 1016.28 356.904 1016.64L1079.42 1023.9C1160.09 1024.7 1249.72 1021.82 1307.73 960.956C1347.7 919.046 1363.94 857.84 1377.72 799.418C1394.65 727.632 1410 649.672 1383.65 581.299C1353.56 503.072 1277.46 458.742 1230.18 391.241C1153.46 281.878 1155.23 116.467 1057.52 29.1613C1011.91 -11.5863 951.729 -27.5657 893.083 -35.5554C782.52 -50.639 677.792 -22.1666 569.215 -26.1372C476.405 -29.5268 376.047 -23.6193 299.052 39.4511Z" fill="#FDE7B3"/>
</svg>
